<svg width="26" height="26" viewBox="0 0 26 26" fill="none" xmlns="http://www.w3.org/2000/svg">
<path fill-rule="evenodd" clip-rule="evenodd" d="M15.3019 18.7186C16.177 19.1014 16.5051 18.2993 16.5051 18.2993L18.8203 6.66871C18.8021 5.88483 17.7447 6.35881 17.7447 6.35881L4.78338 11.4449C4.78338 11.4449 4.16357 11.6637 4.21826 12.0465C4.27295 12.4293 4.76515 12.6116 4.76515 12.6116L8.02828 13.7054C8.02828 13.7054 9.01268 16.9321 9.21321 17.5519C9.39551 18.1534 9.55958 18.1717 9.55958 18.1717C9.74187 18.2446 9.90594 18.117 9.90594 18.117L12.0206 16.2029L15.3019 18.7186ZM15.8669 8.72869C15.8669 8.72869 16.3226 8.45525 16.3044 8.72869C16.3044 8.72869 16.3773 8.76515 16.1403 9.02037C15.9216 9.23913 10.7626 13.8695 10.0698 14.4893C10.0151 14.5258 9.97868 14.5804 9.97868 14.6534L9.77815 16.367C9.74169 16.5493 9.50471 16.5675 9.45002 16.4034L8.59322 13.596C8.55676 13.4867 8.59322 13.359 8.7026 13.2861L15.8669 8.72869Z" fill="white" fill-opacity="0.4"/>
</svg>
