<svg width="16" height="14" viewBox="0 0 16 14" fill="none" xmlns="http://www.w3.org/2000/svg">
<path d="M16 0.00784565C15.3036 0.534866 14.5324 0.937952 13.7164 1.20158C13.2784 0.661287 12.6962 0.278341 12.0488 0.104535C11.4013 -0.0692709 10.7196 -0.0255511 10.0961 0.229782C9.47248 0.485114 8.93705 0.93974 8.56217 1.53217C8.18729 2.1246 7.99105 2.82626 8 3.54224V4.32246C6.72192 4.35801 5.45547 4.05391 4.31346 3.43726C3.17145 2.8206 2.18932 1.91052 1.45455 0.788065C1.45455 0.788065 -1.45455 7.81003 5.09091 10.9309C3.59311 12.0216 1.80884 12.5685 0 12.4913C6.54545 16.3924 14.5455 12.4913 14.5455 3.51883C14.5448 3.3015 14.5253 3.08471 14.4873 2.87125C15.2295 2.08595 15.7533 1.09447 16 0.00784565V0.00784565Z" fill="white"/>
</svg>
